Coordinates
version=1
nRows=18
nColumns=63
inDegrees=yes

Units are S.I. units (second, meters, Newtons, ...)
If the header above contains a line with 'inDegrees', this indicates whether rotational values are in degrees (yes) or radians (no).

endheader
time	pelvis_tilt	pelvis_list	pelvis_rotation	pelvis_tx	pelvis_ty	pelvis_tz	hip_flexion_r	hip_adduction_r	hip_rotation_r	knee_angle_r	knee_angle_r_beta	ankle_angle_r	subtalar_angle_r	mtp_angle_r	hip_flexion_l	hip_adduction_l	hip_rotation_l	knee_angle_l	knee_angle_l_beta	ankle_angle_l	subtalar_angle_l	mtp_angle_l	L5_S1_Flex_Ext	L5_S1_Lat_Bending	L5_S1_axial_rotation	L4_L5_Flex_Ext	L4_L5_Lat_Bending	L4_L5_axial_rotation	L3_L4_Flex_Ext	L3_L4_Lat_Bending	L3_L4_axial_rotation	L2_L3_Flex_Ext	L2_L3_Lat_Bending	L2_L3_axial_rotation	L1_L2_Flex_Ext	L1_L2_Lat_Bending	L1_L2_axial_rotation	L1_T12_Flex_Ext	L1_T12_Lat_Bending	L1_T12_axial_rotation	Abs_r3	Abs_r2	Abs_r1	Abs_t1	Abs_t2	neck_flexion	neck_bending	neck_rotation	arm_flex_r	arm_add_r	arm_rot_r	elbow_flex_r	pro_sup_r	wrist_flex_r	wrist_dev_r	arm_flex_l	arm_add_l	arm_rot_l	elbow_flex_l	pro_sup_l	wrist_flex_l	wrist_dev_l
1.654545	-3.644854	-4.468047	93.646167	0.172458	0.741877	0.784707	11.892450	-5.790034	-4.933051	21.660199	0.378042	35.858459	0.559726	0.000000	5.631194	5.503143	6.487397	5.981131	0.104390	31.534393	-2.329400	0.000000	0.179907	-0.446491	-0.868644	0.334105	-0.593833	-0.922935	0.295569	-1.085597	-0.922935	0.205616	-1.085597	-0.760064	0.167062	-0.910484	-0.705774	0.102799	-0.691614	-0.651483	1.285058	-5.050792	-4.831140	0.000000	0.000000	20.049833	2.722774	3.288257	23.447135	-50.865516	-11.548863	101.512681	91.535895	0.397143	18.517891	13.645830	-51.931712	-26.556627	109.247098	93.976754	-11.732747	8.143759
1.672727	-3.763064	-4.903506	93.034057	0.174695	0.738561	0.790355	13.026537	-5.785982	-4.255145	22.158180	0.386733	36.074231	0.115509	0.000000	6.559340	5.625944	6.742889	6.050513	0.105601	31.697164	-3.684330	0.000000	0.191896	-0.457429	-0.785160	0.356370	-0.608380	-0.834232	0.315266	-1.112192	-0.834232	0.219318	-1.112192	-0.687015	0.178195	-0.932789	-0.637942	0.109649	-0.708557	-0.588870	1.370695	-5.174525	-4.366822	0.000000	0.000000	20.640288	2.704135	3.966069	18.782490	-46.581639	-10.907832	94.345517	92.494425	0.197691	18.819792	9.835233	-48.382985	-25.197371	102.175044	95.584925	-11.151076	8.166421
1.690909	-3.801549	-5.316829	92.510827	0.176726	0.735808	0.795907	14.076109	-5.684249	-3.590212	22.549984	0.393571	36.004499	-0.490792	0.000000	7.519719	5.640626	6.872445	6.230044	0.108735	31.775677	-4.789518	0.000000	0.202705	-0.459619	-0.669028	0.376444	-0.611294	-0.710843	0.333025	-1.117519	-0.710843	0.231672	-1.117519	-0.585400	0.188232	-0.937256	-0.543586	0.115826	-0.711951	-0.501771	1.447904	-5.199308	-3.720935	0.000000	0.000000	21.255415	2.617077	4.486706	16.828952	-42.565985	-4.868954	85.812862	91.269710	0.160949	18.348487	7.305236	-44.353200	-19.408790	93.467623	94.711035	-10.567968	7.625735
1.709091	-3.791660	-5.680197	92.139802	0.178518	0.733539	0.801352	15.001617	-5.530613	-3.028387	22.851628	0.398836	35.758088	-1.154389	0.000000	8.485032	5.582418	6.900758	6.537997	0.114110	31.813963	-5.589865	0.000000	0.206737	-0.457423	-0.551043	0.383932	-0.608373	-0.585483	0.339649	-1.112179	-0.585483	0.236280	-1.112179	-0.482163	0.191976	-0.932778	-0.447723	0.118130	-0.708549	-0.413282	1.476704	-5.174466	-3.064736	0.000000	0.000000	21.881802	2.541175	4.952423	14.970648	-38.879144	2.965311	76.439584	88.280281	0.377570	17.348659	5.954043	-40.178022	-9.599956	83.583910	91.854518	-9.899236	6.832858
1.727273	-3.732063	-5.975839	91.920246	0.180064	0.731673	0.806586	15.772979	-5.316781	-2.486953	23.053935	0.402367	35.406005	-1.913563	0.000000	9.421419	5.452383	6.763694	6.964010	0.121545	31.900324	-5.967467	0.000000	0.202168	-0.449899	-0.436826	0.375446	-0.598366	-0.464128	0.332141	-1.093885	-0.464128	0.231057	-1.093885	-0.382223	0.187733	-0.917434	-0.354921	0.115519	-0.696894	-0.327620	1.444063	-5.089349	-2.429496	0.000000	0.000000	22.478653	2.451173	5.395808	13.201298	-35.519309	12.423227	66.677197	83.725442	0.767984	15.948561	5.565751	-36.074036	3.726503	72.933526	87.437603	-9.226806	5.941693
1.745455	-3.639935	-6.180442	91.860102	0.181263	0.730186	0.811470	16.345488	-5.103107	-2.136772	23.151809	0.404075	35.067123	-2.473535	0.000000	10.276370	5.297944	6.653882	7.478976	0.130533	32.025317	-6.158616	0.000000	0.187580	-0.436039	-0.348315	0.348354	-0.579931	-0.370084	0.308174	-1.060184	-0.370084	0.214385	-1.060184	-0.304775	0.174186	-0.889170	-0.283006	0.107183	-0.675424	-0.261236	1.339862	-4.932556	-1.937221	0.000000	0.000000	22.989868	2.319086	5.980638	11.868601	-32.385185	23.121498	56.929671	77.882232	1.368816	14.413927	5.629560	-32.316331	19.478315	61.967754	81.971078	-8.614761	5.108765
1.763636	-3.529247	-6.292362	91.916542	0.182211	0.729051	0.815809	16.708832	-4.893894	-1.892927	23.135970	0.403799	34.791226	-2.868584	0.000000	11.003504	5.126121	6.451181	8.018477	0.139949	32.238236	-6.014510	0.000000	0.166524	-0.418357	-0.278249	0.309252	-0.556414	-0.295640	0.273583	-1.017192	-0.295640	0.190321	-1.017192	-0.243468	0.154634	-0.853113	-0.226078	0.095152	-0.648034	-0.208687	1.189466	-4.732534	-1.547540	0.000000	0.000000	23.350837	2.147835	6.643762	10.938733	-29.578888	35.186562	47.548895	70.850383	1.915506	12.689511	5.872079	-28.978282	37.097053	51.014487	75.540079	-8.303712	4.135282
1.781818	-3.420824	-6.294929	92.119832	0.182796	0.728262	0.819490	16.830396	-4.737621	-1.911703	23.010781	0.401614	34.647717	-2.905751	0.000000	11.548182	4.983841	6.487731	8.530248	0.148881	32.462607	-5.942144	0.000000	0.139078	-0.397796	-0.254912	0.258282	-0.529068	-0.270844	0.228491	-0.967201	-0.270844	0.158952	-0.967201	-0.223048	0.129148	-0.811185	-0.207116	0.079469	-0.616186	-0.191184	0.993420	-4.499946	-1.417745	0.000000	0.000000	23.533954	1.982915	7.518944	10.526786	-27.074242	47.679638	38.825089	62.972160	2.528583	10.866041	5.741476	-26.128740	55.013386	40.505039	68.358478	-7.905214	3.090140
1.800000	-3.309231	-6.206901	92.433458	0.183060	0.727770	0.822436	16.740917	-4.620646	-2.126374	22.788152	0.397728	34.626013	-2.658438	0.000000	11.903602	4.858257	6.640502	8.969466	0.156547	32.703250	-5.817503	0.000000	0.109937	-0.375056	-0.257129	0.204164	-0.498824	-0.273200	0.180615	-0.911911	-0.273200	0.125647	-0.911911	-0.224988	0.102087	-0.764814	-0.208917	0.062818	-0.580961	-0.192847	0.785268	-4.242707	-1.430075	0.000000	0.000000	23.531771	1.818225	8.423677	10.336040	-25.076126	60.218767	31.057908	54.392664	3.012623	8.756682	5.458222	-23.682797	73.258772	30.714778	60.316815	-7.528083	1.696029
1.818182	-3.237889	-6.020499	92.802591	0.183140	0.727566	0.824661	16.462574	-4.576846	-2.476331	22.511633	0.392902	34.733624	-2.169380	0.000000	12.046487	4.786187	6.905207	9.314939	0.162576	32.917225	-5.725764	0.000000	0.078432	-0.357655	-0.280184	0.145656	-0.475681	-0.297695	0.128856	-0.869603	-0.297695	0.089640	-0.869603	-0.245161	0.072832	-0.729330	-0.227649	0.044816	-0.554008	-0.210138	0.560230	-4.045867	-1.558299	0.000000	0.000000	23.334666	1.751515	9.245631	10.137879	-23.603732	72.168528	24.461382	45.513354	3.330694	6.183857	4.906981	-21.729606	90.426758	22.073392	51.786126	-7.086133	-0.201590
1.836364	-3.201066	-5.762432	93.237183	0.183052	0.727619	0.826211	16.024516	-4.599845	-2.971970	22.182801	0.387163	34.948220	-1.479346	0.000000	12.015954	4.759715	7.238731	9.584575	0.167282	33.090993	-5.631741	0.000000	0.047935	-0.345354	-0.323915	0.089021	-0.459321	-0.344160	0.078753	-0.839695	-0.344160	0.054785	-0.839695	-0.283426	0.044513	-0.704247	-0.263181	0.027390	-0.534954	-0.242936	0.342398	-3.906719	-1.801520	0.000000	0.000000	22.969529	1.758005	9.975451	9.769970	-22.658196	83.224655	19.222211	36.690028	3.515482	3.258828	3.898912	-20.244272	105.843823	14.890514	42.811396	-6.502622	-2.539331
1.854545	-3.231007	-5.437129	93.647855	0.182899	0.727874	0.827283	15.494087	-4.705198	-3.504810	21.864921	0.381615	35.263038	-0.693845	0.000000	11.824907	4.810327	7.649196	9.776607	0.170634	33.185481	-5.687774	0.000000	0.016158	-0.344265	-0.358963	0.030008	-0.457872	-0.381398	0.026547	-0.837045	-0.381398	0.018468	-0.837045	-0.314092	0.015005	-0.702025	-0.291657	0.009233	-0.533266	-0.269222	0.115418	-3.894392	-1.996443	0.000000	0.000000	22.484630	1.858224	10.355119	9.381757	-22.711018	99.083859	14.748563	28.585206	4.711772	-1.535924	2.572844	-19.160745	118.854824	9.305462	33.896993	-5.651567	-5.190818
1.872727	-3.350046	-5.039399	94.062231	0.182811	0.728383	0.827958	14.854229	-4.908467	-4.093591	21.543952	0.376013	35.642742	0.153715	0.000000	11.478742	4.943493	8.034911	9.905648	0.172886	33.201244	-5.744141	0.000000	-0.018471	-0.358366	-0.397450	-0.034303	-0.476627	-0.422291	-0.030346	-0.871331	-0.422291	-0.021111	-0.871331	-0.347769	-0.017152	-0.730780	-0.322928	-0.010554	-0.555109	-0.298088	-0.131938	-4.053907	-2.210500	0.000000	0.000000	21.856217	2.062103	10.439668	8.475086	-22.809861	109.723450	11.760184	20.972943	5.033677	-5.455838	0.783982	-18.426496	130.348090	5.249738	25.160427	-4.947839	-7.788159
1.890909	-3.573579	-4.586014	94.443174	0.182912	0.729111	0.828369	14.152002	-5.196602	-4.624432	21.248918	0.370864	36.041658	0.914972	0.000000	11.009511	5.166796	8.384447	9.982558	0.174229	33.114780	-5.848693	0.000000	-0.056444	-0.390762	-0.423550	-0.104822	-0.519714	-0.450022	-0.092732	-0.950099	-0.450022	-0.064510	-0.950099	-0.370606	-0.052414	-0.796842	-0.344134	-0.032252	-0.605290	-0.317662	-0.403174	-4.420379	-2.355657	0.000000	0.000000	21.132012	2.318847	10.120148	6.991595	-22.730305	113.978143	10.271097	14.036184	4.298926	-7.627548	-1.330826	-17.942663	140.751705	2.558865	17.497617	-4.444099	-9.802007
1.909091	-3.902938	-4.093459	94.787843	0.183198	0.730016	0.828592	13.412449	-5.584040	-5.145064	20.991620	0.366373	36.462041	1.656200	0.000000	10.452419	5.482294	8.673762	10.023373	0.174941	32.945406	-5.960349	0.000000	-0.096416	-0.442031	-0.441775	-0.179054	-0.587902	-0.469386	-0.158402	-1.074755	-0.469386	-0.110194	-1.074755	-0.386554	-0.089532	-0.901390	-0.358943	-0.055092	-0.684706	-0.331332	-0.688690	-5.000347	-2.457023	0.000000	0.000000	20.316593	2.653244	9.412548	5.058882	-22.741588	113.923548	9.946197	7.755435	3.407511	-8.354627	-3.716677	-17.711612	149.761208	1.033264	11.506932	-4.218603	-11.110921
1.927273	-4.320265	-3.576201	95.079796	0.183641	0.731048	0.828696	12.658152	-6.041953	-5.600899	20.775156	0.362595	36.863988	2.291396	0.000000	9.826401	5.875798	8.962642	10.014077	0.174779	32.681733	-6.157830	0.000000	-0.138075	-0.506905	-0.461018	-0.256419	-0.674183	-0.489832	-0.226843	-1.232488	-0.489832	-0.157806	-1.232488	-0.403391	-0.128216	-1.033680	-0.374577	-0.078896	-0.785195	-0.345764	-0.986255	-5.734207	-2.564045	0.000000	0.000000	19.464994	3.031754	8.527330	2.956985	-22.910411	110.390824	10.352131	3.356688	2.760305	-8.091805	-6.330108	-17.741792	156.812626	0.430251	7.178029	-4.207308	-11.889994
1.945455	-4.804109	-3.052031	95.307491	0.184211	0.732148	0.828734	11.915554	-6.551314	-5.991159	20.605570	0.359635	37.229204	2.833013	0.000000	9.159773	6.327585	9.270997	9.955467	0.173756	32.343511	-6.451758	0.000000	-0.179707	-0.580729	-0.480880	-0.333734	-0.772370	-0.510935	-0.295240	-1.411985	-0.510935	-0.205387	-1.411985	-0.420770	-0.166876	-1.184223	-0.390715	-0.102685	-0.899550	-0.360660	-1.283628	-6.569325	-2.674509	0.000000	0.000000	18.602115	3.441740	7.589250	0.921272	-23.269851	104.767471	11.134889	0.393678	2.348720	-7.376409	-8.997586	-18.095963	161.211540	0.508641	4.457690	-4.337553	-12.191003
1.963636	-5.334243	-2.553006	95.479012	0.184822	0.733236	0.828760	11.219002	-7.099136	-6.326175	20.481315	0.357466	37.529208	3.267695	0.000000	8.499889	6.823895	9.599103	9.859369	0.172078	31.948937	-6.820503	0.000000	-0.218109	-0.658542	-0.502302	-0.405051	-0.875861	-0.533696	-0.358332	-1.601179	-0.533696	-0.249277	-1.601179	-0.439514	-0.202536	-1.342899	-0.408120	-0.124628	-1.020082	-0.376727	-1.557932	-7.449559	-2.793653	0.000000	0.000000	17.761739	3.882383	6.747534	-1.073589	-23.833514	96.634203	12.273089	-0.601452	2.056439	-6.352291	-11.522233	-18.805358	162.782761	1.024267	3.300639	-4.551694	-12.038360
